<svg width="421" height="478" viewBox="0 0 421 478" fill="none" xmlns="http://www.w3.org/2000/svg">
<line y1="-5" x2="388.312" y2="-5" transform="matrix(-0.193144 0.98117 0.98117 0.193144 420 97)" stroke="white" stroke-width="10"/>
<line x1="5.90585" y1="96.0343" x2="80.9059" y2="477.034" stroke="white" stroke-width="10"/>
<line x1="76" y1="473" x2="345" y2="473" stroke="white" stroke-width="10"/>
<line x1="1" y1="92" x2="420" y2="92" stroke="white" stroke-width="10"/>
<line x1="415.498" y1="54.4525" x2="6.45257" y2="93.5022" stroke="white" stroke-width="10" stroke-linecap="round"/>
<path d="M415 54L284.644 18.7687C272.978 15.6157 260.837 14.6034 248.81 15.7809L144.142 26.028C130.849 27.3295 117.951 31.2809 106.21 37.649L6.00003 92" stroke="white" stroke-width="10" stroke-linecap="round"/>
<line x1="90.8616" y1="130.824" x2="331.862" y2="423.824" stroke="white" stroke-width="10"/>
<line y1="-5" x2="379.381" y2="-5" transform="matrix(-0.635245 0.772311 0.772311 0.635245 331 141)" stroke="white" stroke-width="10"/>
</svg>
